<svg aria-hidden="true" style="position: absolute; width: 0; height: 0; overflow: hidden;" version="1.1" xmlns="http://www.w3.org/2000/svg" xmlns:xlink="http://www.w3.org/1999/xlink">
<defs>
<symbol id="icon-google" viewBox="0 0 99 32">
<path fill="#fff" style="fill: var(--color1, #fff)" opacity="0.2" d="M95.442 19.556l2.733 1.804c-0.887 1.293-3.009 3.512-6.677 3.512-4.554 0-7.946-3.489-7.946-7.927 0-4.723 3.428-7.927 7.563-7.927 4.159 0 6.197 3.275 6.856 5.043l0.36 0.902-10.715 4.39c0.814 1.59 2.086 2.397 3.883 2.397 1.798 0 3.044-0.878 3.944-2.195zM87.040 16.697l7.155-2.943c-0.396-0.985-1.57-1.685-2.973-1.685-1.786 0-4.267 1.566-4.183 4.627zM78.386 0.939h3.452v23.209h-3.452v-23.209zM72.944 9.637h3.332v14.096c0 5.85-3.487 8.259-7.611 8.259-3.883 0-6.22-2.587-7.095-4.687l3.056-1.258c0.551 1.294 1.882 2.825 4.039 2.825 2.649 0 4.279-1.626 4.279-4.664v-1.139h-0.12c-0.791 0.949-2.302 1.803-4.219 1.803-4.003 0-7.671-3.453-7.671-7.902 0-4.474 3.668-7.962 7.671-7.962 1.906 0 3.428 0.843 4.219 1.768h0.12v-1.138zM73.184 16.97c0-2.8-1.882-4.841-4.279-4.841-2.421 0-4.459 2.041-4.459 4.841 0 2.765 2.038 4.77 4.459 4.77 2.397 0.012 4.279-2.005 4.279-4.77zM41.985 16.91c0 4.568-3.595 7.927-8.006 7.927s-8.006-3.369-8.006-7.927c0-4.592 3.595-7.938 8.006-7.938s8.006 3.346 8.006 7.938zM38.485 16.91c0-2.847-2.086-4.806-4.507-4.806s-4.506 1.958-4.506 4.806c0 2.824 2.086 4.805 4.506 4.805 2.422 0 4.507-1.982 4.507-4.806zM59.472 16.946c0 4.568-3.595 7.926-8.006 7.926s-8.006-3.358-8.006-7.926c0-4.592 3.595-7.927 8.006-7.927s8.006 3.322 8.006 7.927zM55.96 16.946c0-2.848-2.086-4.806-4.507-4.806s-4.506 1.958-4.506 4.806c0 2.824 2.086 4.806 4.506 4.806 2.433 0 4.507-1.993 4.507-4.806zM12.812 21.396c-5.022 0-8.954-4.011-8.954-8.983s3.932-8.983 8.954-8.983c2.709 0 4.686 1.056 6.149 2.409l2.409-2.386c-2.038-1.934-4.759-3.406-8.558-3.406-6.879 0-12.668 5.554-12.668 12.365s5.789 12.364 12.668 12.364c3.716 0 6.521-1.21 8.714-3.465 2.253-2.231 2.949-5.363 2.949-7.903 0-0.795-0.096-1.614-0.204-2.219h-11.459v3.299h8.162c-0.24 2.065-0.899 3.477-1.87 4.438-1.175 1.175-3.032 2.468-6.293 2.468z"></path>
</symbol>
<symbol id="icon-microsoft" viewBox="0 0 147 32">
<path fill="#fff" style="fill: var(--color1, #fff)" opacity="0.2" d="M147.012 14.382v-2.619h-3.211v-4.071l-0.108 0.034-3.075 0.952v3.085h-4.76v-1.718c0-0.8 0.177-1.413 0.525-1.821 0.345-0.404 0.84-0.61 1.47-0.61 0.453 0 0.923 0.109 1.395 0.322l0.119 0.053v-2.758l-0.056-0.021c-0.441-0.16-1.041-0.242-1.784-0.242-0.936 0-1.787 0.206-2.53 0.616-0.737 0.408-1.329 1.001-1.724 1.716l-0.011 0.022c-0.408 0.742-0.614 1.6-0.614 2.549v1.89h-2.236v2.619h2.236v11.032h3.209v-11.032h4.76v7.010c0 2.888 1.345 4.351 3.996 4.351 0.436 0 0.894-0.052 1.363-0.153 0.477-0.104 0.801-0.208 0.992-0.318l0.043-0.025v-2.644l-0.131 0.088c-0.174 0.118-0.391 0.213-0.645 0.285-0.255 0.073-0.469 0.11-0.634 0.11-0.621 0-1.080-0.17-1.366-0.504-0.289-0.338-0.434-0.928-0.434-1.754v-6.446h3.211zM123.246 23.086c-1.164 0-2.083-0.392-2.73-1.163-0.651-0.775-0.981-1.879-0.981-3.282 0-1.447 0.33-2.58 0.981-3.368 0.648-0.784 1.557-1.181 2.704-1.181 1.113 0 1.999 0.379 2.633 1.128 0.638 0.754 0.962 1.877 0.962 3.342 0 1.482-0.305 2.621-0.904 3.383-0.597 0.756-1.493 1.141-2.664 1.141zM123.389 11.434c-2.222 0-3.988 0.66-5.246 1.96s-1.896 3.101-1.896 5.352c0 2.138 0.622 3.857 1.851 5.109s2.898 1.888 4.965 1.888c2.155 0 3.885-0.669 5.143-1.989 1.258-1.317 1.895-3.101 1.895-5.298 0-2.171-0.598-3.902-1.778-5.147-1.181-1.245-2.841-1.876-4.935-1.876zM111.073 11.434c-1.512 0-2.762 0.392-3.717 1.163-0.961 0.777-1.448 1.796-1.448 3.029 0 0.641 0.105 1.211 0.312 1.694 0.224 0.506 0.55 0.931 0.953 1.264l0.006 0.005c0.425 0.355 1.081 0.727 1.95 1.106 0.731 0.305 1.276 0.562 1.622 0.766 0.339 0.198 0.579 0.398 0.715 0.594 0.132 0.19 0.199 0.451 0.199 0.773 0 0.917-0.678 1.363-2.073 1.363-0.517 0-1.108-0.109-1.755-0.325-0.686-0.231-1.281-0.544-1.815-0.935l0.018 0.013-0.133-0.097v3.13l0.049 0.023c0.454 0.213 1.027 0.392 1.701 0.533s1.285 0.213 1.817 0.213c1.64 0 2.962-0.394 3.925-1.171 0.97-0.782 1.462-1.825 1.462-3.101 0-0.92-0.265-1.709-0.786-2.346-0.518-0.631-1.417-1.211-2.672-1.723-0.999-0.406-1.639-0.744-1.903-1.003-0.254-0.25-0.384-0.603-0.384-1.051 0-0.396 0.16-0.715 0.488-0.972 0.33-0.259 0.789-0.391 1.365-0.391 0.535 0 1.082 0.085 1.626 0.253s1.022 0.392 1.42 0.667l0.131 0.091v-2.969l-0.050-0.022c-0.368-0.16-0.853-0.296-1.442-0.407-0.472-0.098-1.017-0.158-1.575-0.165l-0.006-0zM97.541 23.085c-1.165 0-2.083-0.391-2.731-1.162-0.651-0.775-0.981-1.879-0.981-3.282 0-1.447 0.33-2.58 0.981-3.368 0.647-0.784 1.557-1.181 2.704-1.181 1.112 0 1.998 0.379 2.633 1.128 0.637 0.754 0.961 1.877 0.961 3.342 0 1.482-0.304 2.621-0.904 3.383-0.596 0.756-1.492 1.141-2.664 1.141zM97.684 11.434c-2.223 0-3.989 0.66-5.246 1.96s-1.896 3.101-1.896 5.352c0 2.139 0.623 3.857 1.851 5.109s2.899 1.888 4.966 1.888c2.154 0 3.884-0.669 5.142-1.989 1.258-1.317 1.896-3.101 1.896-5.298 0-2.171-0.598-3.902-1.778-5.147s-2.841-1.876-4.934-1.876zM85.67 14.126v-2.364h-3.17v13.652h3.17v-6.984c0-1.187 0.266-2.162 0.79-2.9 0.518-0.728 1.208-1.096 2.050-1.096 0.286 0 0.606 0.047 0.953 0.142 0.344 0.094 0.593 0.196 0.74 0.303l0.133 0.098v-3.238l-0.051-0.021c-0.296-0.127-0.713-0.191-1.242-0.191-0.796 0-1.509 0.259-2.12 0.77-0.536 0.449-0.923 1.064-1.22 1.831h-0.034zM76.823 11.434c-1.455 0-2.752 0.316-3.855 0.939-1.095 0.619-1.965 1.524-2.526 2.613l-0.016 0.035c-0.579 1.131-0.873 2.45-0.873 3.923 0 1.29 0.285 2.473 0.848 3.516 0.564 1.045 1.362 1.863 2.373 2.43 1.009 0.566 2.174 0.853 3.466 0.853 1.506 0 2.793-0.305 3.824-0.907l0.042-0.024v-2.942l-0.133 0.099c-0.446 0.331-0.959 0.607-1.51 0.805l-0.041 0.013c-0.56 0.198-1.071 0.298-1.519 0.298-1.243 0-2.242-0.395-2.967-1.171-0.727-0.779-1.095-1.871-1.095-3.247 0-1.384 0.384-2.504 1.141-3.332 0.754-0.824 1.755-1.243 2.973-1.243 1.042 0 2.057 0.357 3.018 1.064l0.133 0.098v-3.099l-0.043-0.025c-0.361-0.205-0.854-0.373-1.467-0.503-0.531-0.119-1.143-0.189-1.77-0.192h-0.001zM67.368 11.762h-3.17v13.652h3.17v-13.651zM65.816 5.947c-0.009-0-0.019-0-0.029-0-0.514 0-0.981 0.205-1.323 0.537l0-0c-0.349 0.326-0.566 0.789-0.566 1.303 0 0.013 0 0.026 0 0.038l-0-0.002c0 0.523 0.188 0.965 0.56 1.312 0.37 0.347 0.826 0.523 1.356 0.523s0.989-0.176 1.364-0.523c0.349-0.317 0.567-0.772 0.567-1.278 0-0.012-0-0.024-0-0.037l0 0.002c0-0.514-0.186-0.959-0.552-1.326-0.366-0.365-0.83-0.55-1.379-0.55zM57.905 10.755v14.659h3.235v-19.048h-4.477l-5.691 14.149-5.524-14.149h-4.661v19.048h3.040v-14.659h0.105l5.832 14.659h2.295l5.741-14.658h0.104zM14.914 15.106h-14.914v-15.106h14.914v15.106zM31.38 15.106h-14.914v-15.106h14.914v15.106zM14.913 31.79h-14.913v-15.105h14.913v15.106zM31.38 31.79h-14.914v-15.105h14.914v15.106z"></path>
</symbol>
<symbol id="icon-slack" viewBox="0 0 127 32">
<path fill="#fff" style="fill: var(--color1, #fff)" opacity="0.04000000000000001" d="M40.481 25.079l1.58-3.652c1.708 1.268 3.977 1.928 6.22 1.928 1.657 0 2.702-0.634 2.702-1.598-0.025-2.688-9.916-0.583-9.992-7.329-0.025-3.423 3.033-6.060 7.367-6.060 2.575 0 5.15 0.633 6.985 2.079l-1.479 3.728c-1.682-1.065-3.773-1.826-5.761-1.826-1.351 0-2.243 0.633-2.243 1.445 0.025 2.638 9.992 1.192 10.094 7.633 0 3.5-2.983 5.96-7.265 5.96-3.135 0-6.016-0.736-8.208-2.308zM101.126 20.109l4.359 2.409c-1.66 2.927-4.754 4.869-8.302 4.869-0.012 0-0.024-0-0.036-0h0.002c-5.277 0-9.559-4.261-9.559-9.51s4.283-9.509 9.559-9.509c3.569 0 6.704 1.977 8.336 4.869l-4.359 2.409c-0.79-1.369-2.269-2.307-3.977-2.307-2.523 0-4.563 2.028-4.563 4.539s2.040 4.539 4.563 4.539c1.708 0 3.187-0.938 3.977-2.307h0.001zM58.147 0.482h5.455v26.55h-5.455v-26.55zM107.626 0.482h5.456v15.595l6.169-7.329h6.679l-7.622 8.825 8.234 9.459h-6.984l-6.475-7.963v7.963h-5.456v-26.55zM79.815 20.16v-4.489c-0.79-1.319-2.422-2.333-4.257-2.333-2.524 0-4.563 2.028-4.563 4.539s2.039 4.539 4.563 4.539c1.835 0 3.466-0.963 4.257-2.256zM79.815 8.749h5.456v18.258h-5.456v-2.155c-0.892 1.495-3.11 2.536-5.43 2.536-4.793 0-8.566-4.261-8.566-9.535s3.773-9.484 8.566-9.484c2.32 0 4.537 1.040 5.43 2.536v-2.156zM6.755 20.134c0 1.851-1.504 3.348-3.365 3.348-0 0-0.001 0-0.001 0-0.928 0-1.768-0.374-2.379-0.98l0 0c-0.608-0.605-0.985-1.443-0.985-2.369v-0c0-1.851 1.504-3.348 3.365-3.348h3.365v3.348zM8.438 20.134c0-1.851 1.504-3.347 3.365-3.347s3.365 1.496 3.365 3.348v8.368c0 1.851-1.504 3.347-3.365 3.347-0.001 0-0.002 0-0.002 0-0.928 0-1.768-0.374-2.378-0.98l0 0c-0.608-0.605-0.984-1.442-0.984-2.367v-8.369zM11.803 6.695c-0.001 0-0.001 0-0.002 0-0.928 0-1.768-0.374-2.379-0.98l0 0c-0.608-0.605-0.984-1.443-0.984-2.368v-0c-0.001-1.851 1.503-3.347 3.365-3.347s3.365 1.496 3.365 3.347v3.348h-3.365zM11.803 8.394c1.861 0 3.365 1.495 3.365 3.347s-1.504 3.348-3.365 3.348h-8.438c-0.001 0-0.001 0-0.002 0-0.928 0-1.768-0.374-2.379-0.98l0 0c-0.608-0.605-0.984-1.443-0.985-2.368v-0c0-1.851 1.504-3.347 3.365-3.347h8.438zM25.288 11.741c0-1.851 1.504-3.347 3.365-3.347s3.365 1.495 3.365 3.347-1.504 3.348-3.365 3.348h-3.365v-3.348zM23.605 11.741c0 1.851-1.503 3.348-3.365 3.348-0.001 0-0.001 0-0.002 0-0.928 0-1.768-0.374-2.379-0.98l0 0c-0.608-0.605-0.984-1.443-0.984-2.368v-8.394c-0.001-1.851 1.504-3.347 3.365-3.347s3.365 1.496 3.365 3.347v8.395zM20.24 25.156c1.861 0 3.365 1.495 3.365 3.347s-1.504 3.347-3.365 3.347c-0.001 0-0.002 0-0.002 0-0.928 0-1.768-0.374-2.378-0.98l0 0c-0.608-0.605-0.984-1.442-0.984-2.367v-3.348h3.365zM20.24 23.481c-0 0-0.001 0-0.002 0-0.928 0-1.769-0.374-2.379-0.98l0 0c-0.608-0.605-0.984-1.442-0.984-2.367v-0c0-1.851 1.504-3.348 3.365-3.348h8.438c1.861 0 3.365 1.496 3.365 3.348s-1.504 3.348-3.365 3.348h-8.438z"></path>
</symbol>
<symbol id="icon-wordpress" viewBox="0 0 141 32">
<path fill="#fff" style="fill: var(--color1, #fff)" opacity="0.2" d="M81.83 12.506h-5.554v0.585c1.737 0 2.017 0.369 2.017 2.556v3.942c0 2.187-0.279 2.587-2.017 2.587-1.334-0.185-2.233-0.893-3.475-2.248l-1.427-1.54c1.923-0.339 2.947-1.54 2.947-2.895 0-1.695-1.457-2.987-4.188-2.987h-5.46v0.584c1.737 0 2.016 0.369 2.016 2.556v3.942c0 2.187-0.279 2.587-2.016 2.587v0.585h6.174v-0.585c-1.737 0-2.016-0.4-2.016-2.587v-1.108h0.527l3.444 4.28h9.029c4.437 0 6.361-2.34 6.361-5.143s-1.924-5.112-6.361-5.112zM68.83 17.526v-4.095h1.272c1.396 0 2.017 0.954 2.017 2.063 0 1.078-0.621 2.032-2.017 2.032h-1.273zM81.923 21.807h-0.217c-1.116 0-1.271-0.277-1.271-1.694v-6.683h1.489c3.227 0 3.816 2.34 3.816 4.158 0 1.879-0.589 4.219-3.816 4.219zM47.391 18.665l2.14-6.283c0.621-1.817 0.342-2.34-1.644-2.34v-0.616h5.833v0.616c-1.955 0-2.42 0.462-3.196 2.71l-3.537 10.532h-0.403l-3.166-9.639-3.228 9.639h-0.403l-3.444-10.532c-0.745-2.248-1.241-2.71-3.041-2.71v-0.616h6.887v0.616c-1.83 0-2.327 0.431-1.675 2.34l2.079 6.283 3.135-9.239h0.589l3.072 9.239zM57.939 23.161c-3.413 0-6.205-2.495-6.205-5.544 0-3.017 2.793-5.513 6.205-5.513s6.205 2.495 6.205 5.513c0 3.049-2.792 5.544-6.205 5.544zM57.939 13.060c-2.854 0-3.847 2.556-3.847 4.558 0 2.033 0.993 4.558 3.847 4.558 2.886 0 3.879-2.525 3.879-4.558 0-2.002-0.993-4.558-3.879-4.558zM95.854 22.145v0.615h-7.105v-0.615c2.079 0 2.452-0.524 2.452-3.604v-4.927c0-3.081-0.372-3.572-2.452-3.572v-0.617h6.423c3.196 0 4.964 1.633 4.964 3.819 0 2.125-1.769 3.788-4.964 3.788h-1.769v1.508c0 3.081 0.372 3.604 2.452 3.604zM95.171 10.535h-1.769v5.359h1.769c1.737 0 2.545-1.201 2.545-2.649 0-1.478-0.807-2.711-2.545-2.711zM121.451 19.866l-0.155 0.554c-0.279 1.017-0.621 1.386-2.824 1.386h-0.435c-1.612 0-1.892-0.37-1.892-2.556v-1.417c2.42 0 2.607 0.215 2.607 1.817h0.59v-4.589h-0.59c0 1.601-0.186 1.817-2.607 1.817v-3.449h1.706c2.204 0 2.545 0.369 2.824 1.386l0.156 0.585h0.496l-0.217-2.895h-9.123v0.585c1.737 0 2.017 0.369 2.017 2.556v3.942c0 2-0.238 2.504-1.607 2.576-1.302-0.198-2.196-0.903-3.419-2.238l-1.428-1.539c1.924-0.34 2.948-1.54 2.948-2.895 0-1.694-1.459-2.987-4.189-2.987h-5.46v0.585c1.737 0 2.017 0.369 2.017 2.556v3.942c0 2.186-0.279 2.587-2.017 2.587v0.585h6.175v-0.585c-1.737 0-2.017-0.4-2.017-2.586v-1.109h0.527l3.444 4.28h12.752l0.187-2.895h-0.466zM105.007 17.526v-4.095h1.272c1.396 0 2.017 0.954 2.017 2.063 0 1.078-0.621 2.032-2.017 2.032h-1.272zM127.749 23.161c-1.241 0-2.327-0.647-2.793-1.047-0.155 0.154-0.434 0.616-0.496 1.047h-0.59v-4.249h0.621c0.248 2.032 1.675 3.233 3.506 3.233 0.993 0 1.799-0.553 1.799-1.478 0-0.8-0.713-1.417-1.985-2.001l-1.769-0.831c-1.241-0.585-2.172-1.602-2.172-2.956 0-1.479 1.396-2.741 3.32-2.741 1.025 0 1.892 0.37 2.42 0.801 0.155-0.124 0.311-0.462 0.404-0.832h0.59v3.635h-0.652c-0.218-1.447-1.024-2.649-2.668-2.649-0.869 0-1.676 0.493-1.676 1.263 0 0.8 0.652 1.231 2.142 1.909l1.705 0.831c1.49 0.708 2.079 1.847 2.079 2.771 0 1.94-1.707 3.295-3.785 3.295zM137.305 23.161c-1.241 0-2.327-0.647-2.793-1.047-0.155 0.154-0.434 0.616-0.496 1.047h-0.589v-4.249h0.62c0.248 2.032 1.676 3.233 3.506 3.233 0.993 0 1.8-0.553 1.8-1.478 0-0.8-0.713-1.417-1.986-2.001l-1.769-0.831c-1.241-0.585-2.172-1.602-2.172-2.956 0-1.479 1.396-2.741 3.32-2.741 1.024 0 1.892 0.37 2.42 0.801 0.155-0.124 0.31-0.462 0.403-0.832h0.59v3.635h-0.652c-0.217-1.447-1.024-2.649-2.668-2.649-0.868 0-1.676 0.493-1.676 1.263 0 0.8 0.652 1.231 2.141 1.909l1.706 0.831c1.489 0.708 2.079 1.847 2.079 2.771 0 1.94-1.706 3.295-3.785 3.295zM2.275 15.886c0 5.395 3.159 10.056 7.74 12.265l-6.551-17.812c-0.751 1.627-1.189 3.532-1.189 5.538 0 0.003 0 0.006 0 0.009v-0zM25.276 15.199c0-1.684-0.609-2.851-1.133-3.759-0.696-1.122-1.348-2.073-1.348-3.195 0-1.253 0.958-2.42 2.305-2.42 0.061 0 0.119 0.007 0.179 0.011-2.431-2.219-5.68-3.577-9.246-3.577-0.009 0-0.019 0-0.028 0h0.001c-0.007 0-0.015-0-0.023-0-4.758 0-8.952 2.419-11.418 6.094l-0.031 0.049c0.322 0.009 0.625 0.016 0.884 0.016 1.436 0 3.66-0.173 3.66-0.173 0.74-0.044 0.827 1.036 0.088 1.123 0 0-0.744 0.087-1.572 0.129l5 14.762 3.005-8.945-2.14-5.817c-0.739-0.044-1.44-0.131-1.44-0.131-0.74-0.042-0.652-1.165 0.087-1.122 0 0 2.268 0.173 3.617 0.173 1.436 0 3.66-0.173 3.66-0.173 0.74-0.044 0.828 1.036 0.088 1.123 0 0-0.745 0.087-1.571 0.129l4.961 14.651 1.369-4.543c0.593-1.884 1.046-3.239 1.046-4.405zM16.247 17.079l-4.12 11.881c1.162 0.353 2.498 0.556 3.881 0.556 1.633 0 3.201-0.283 4.655-0.803l-0.097 0.030c-0.035-0.054-0.068-0.115-0.095-0.18l-0.003-0.008-4.221-11.476zM28.055 9.348c0.058 0.434 0.092 0.9 0.092 1.401 0 1.383-0.26 2.937-1.044 4.881l-4.194 12.036c4.082-2.364 6.828-6.753 6.828-11.78 0-2.369-0.61-4.598-1.682-6.539zM16.007 0c-8.825 0-16.007 7.127-16.007 15.886 0 8.761 7.181 15.887 16.007 15.887s16.007-7.127 16.007-15.887c0-8.759-7.182-15.886-16.007-15.886zM16.007 31.044c-8.421 0-15.273-6.8-15.273-15.159s6.851-15.158 15.273-15.158c8.42 0 15.272 6.8 15.272 15.158s-6.851 15.159-15.273 15.159z"></path>
</symbol>
</defs>
</svg>
