<svg aria-hidden="true" style="position: absolute; width: 0; height: 0; overflow: hidden;" version="1.1" xmlns="http://www.w3.org/2000/svg" xmlns:xlink="http://www.w3.org/1999/xlink">
<defs>
<symbol id="icon-chevron-down" viewBox="0 0 20 20">
<path d="M17.418 6.109c0.272-0.268 0.709-0.268 0.979 0s0.271 0.701 0 0.969l-7.908 7.83c-0.27 0.268-0.707 0.268-0.979 0l-7.908-7.83c-0.27-0.268-0.27-0.701 0-0.969s0.709-0.268 0.979 0l7.419 7.141 7.418-7.141z"></path>
</symbol>
<symbol id="icon-chevron-left" viewBox="0 0 20 20">
<path d="M13.891 17.418c0.268 0.272 0.268 0.709 0 0.979s-0.701 0.271-0.969 0l-7.83-7.908c-0.268-0.27-0.268-0.707 0-0.979l7.83-7.908c0.268-0.27 0.701-0.27 0.969 0s0.268 0.709 0 0.979l-7.141 7.419 7.141 7.418z"></path>
</symbol>
<symbol id="icon-chevron-right" viewBox="0 0 20 20">
<path d="M13.25 10l-7.141-7.42c-0.268-0.27-0.268-0.707 0-0.979 0.268-0.27 0.701-0.27 0.969 0l7.83 7.908c0.268 0.271 0.268 0.709 0 0.979l-7.83 7.908c-0.268 0.271-0.701 0.27-0.969 0s-0.268-0.707 0-0.979l7.141-7.417z"></path>
</symbol>
<symbol id="icon-logo" viewBox="0 0 32 32">
<path fill="#ff6e30" style="fill: var(--color1, #ff6e30)" d="M6.737 0h18.526c3.721 0 6.737 3.016 6.737 6.737v18.526c0 3.721-3.016 6.737-6.737 6.737h-18.526c-3.721 0-6.737-3.016-6.737-6.737v-18.526c0-3.721 3.016-6.737 6.737-6.737z"></path>
<path fill="#fff" style="fill: var(--color2, #fff)" d="M16.813 10.472c-0.28 0-0.552 0.034-0.813 0.099 0.175-1.539 0.78-2.911 1.692-4.022l-0.011 0.014c3.641 0.449 6.431 3.523 6.431 7.249 0 0 0 0 0 0.001v-0 5.327c-0.132 0.008-0.287 0.013-0.442 0.013-2.882 0-5.396-1.58-6.721-3.921l-0.020-0.038h3.224v-1.381c-0-1.844-1.495-3.339-3.34-3.34h-0z"></path>
<path fill="#fff" style="fill: var(--color2, #fff)" d="M7.795 14.274c0-4.484 3.636-8.12 8.12-8.12 0.184 0 0.367 0.006 0.547 0.018l-0.025-0.001c-1.366 1.504-2.203 3.511-2.203 5.713 0 0.176 0.005 0.351 0.016 0.525l-0.001-0.024c-0.525 0.463-0.854 1.137-0.854 1.888 0 0.001 0 0.002 0 0.003v-0 0.56h1.36c1.198 3.267 4.337 5.6 8.020 5.6 0.429 0 0.849-0.031 1.261-0.093v3.453h-5.6v-3.36h-5.041v3.36h-5.6v-9.521z"></path>
</symbol>
</defs>
</svg>
