<svg aria-hidden="true" style="position: absolute; width: 0; height: 0; overflow: hidden;" version="1.1" xmlns="http://www.w3.org/2000/svg" xmlns:xlink="http://www.w3.org/1999/xlink">
<defs>
<symbol id="icon-phpstorm" viewBox="0 0 32 32">
<path fill="#000" style="fill: var(--color1, #000)" d="M18.103 6.949l-1.509-4.572-11.155-2.377-5.44 6.171 17.006 8.685 1.098-7.909z"></path>
<path fill="#000" style="fill: var(--color1, #000)" d="M12.8 18.925l-0.32-9.508-12.48-3.245 3.063 18.331 9.737-0.091v-5.486z"></path>
<path fill="#000" style="fill: var(--color1, #000)" d="M10.103 18.743l0.594-7.543 9.052-9.28 8.091 1.463 4.16 10.377-4.343 4.297-7.085-1.142-4.389 4.617-6.080-2.788z"></path>
<path fill="#000" style="fill: var(--color1, #000)" d="M19.748 1.92l-12.982 11.52 2.514 14.812 10.789 3.748 11.931-7.131-12.252-22.948z"></path>
<path fill="#000" style="fill: var(--color1, #000)" d="M6.125 6.125h19.75v19.75h-19.75v-19.75z"></path>
<path fill="#fff" style="fill: var(--color2, #fff)" d="M8 22.172h7.405v1.234h-7.405v-1.234zM7.909 8.685h3.337c1.966 0 3.155 1.143 3.155 2.835v0.046c0 1.92-1.463 2.88-3.337 2.88h-1.371v2.469h-1.783v-8.229zM11.154 12.8c0.915 0 1.418-0.549 1.418-1.235v-0.046c0-0.823-0.549-1.235-1.463-1.235h-1.371v2.514h1.417zM14.857 15.726l1.052-1.28c0.732 0.595 1.509 1.006 2.468 1.006 0.732 0 1.189-0.274 1.189-0.777v-0.046c0-0.457-0.274-0.685-1.645-1.052-1.646-0.412-2.743-0.869-2.743-2.514v-0.046c0-1.508 1.188-2.469 2.88-2.469 1.189 0 2.24 0.366 3.063 1.052l-0.96 1.371c-0.732-0.503-1.463-0.823-2.148-0.823s-1.052 0.32-1.052 0.732v0.046c0 0.549 0.366 0.732 1.783 1.098 1.645 0.457 2.605 1.051 2.605 2.469v0.046c0 1.646-1.235 2.56-3.017 2.56-1.337-0.052-2.545-0.563-3.481-1.377l0.007 0.006z"></path>
</symbol>
<symbol id="icon-toolbox" viewBox="0 0 32 32">
<path fill="#000001" style="fill: var(--color3, #000001)" opacity="0.78" d="M16 32.076l14-8.011v-16.008l-14 8.010v16.009z"></path>
<path fill="#fff" style="fill: var(--color2, #fff)" opacity="0.78" d="M19 24.555v2.445l6-3.555v-2.445l-6 3.555z"></path>
<path fill="#000" style="fill: var(--color1, #000)" opacity="0.78" d="M16 0.076l-14 7.981v16.008l14 8.011v-16.009l14-8.010-14-7.981z"></path>
</symbol>
<symbol id="icon-procreate" viewBox="0 0 32 32">
<path fill="#1e252b" style="fill: var(--color4, #1e252b)" opacity="0.78" d="M2 12.133c0-3.547 0-5.321 0.69-6.675 0.619-1.197 1.571-2.149 2.733-2.751l0.035-0.017c1.355-0.691 3.128-0.691 6.675-0.691h7.733c3.547 0 5.32 0 6.675 0.69 1.197 0.619 2.149 1.571 2.751 2.733l0.017 0.035c0.691 1.355 0.691 3.128 0.691 6.675v7.733c0 3.547 0 5.32-0.69 6.675-0.619 1.197-1.571 2.149-2.733 2.751l-0.035 0.017c-1.355 0.691-3.128 0.691-6.675 0.691h-7.734c-3.547 0-5.321 0-6.675-0.69-1.197-0.619-2.149-1.571-2.751-2.733l-0.017-0.035c-0.69-1.355-0.69-3.128-0.69-6.675v-7.734z"></path>
<path fill="#000" style="fill: var(--color1, #000)" opacity="0.78" d="M9.867 16.4c-3.9 2.87-4.667 7.066-4.667 10.566 0.178-1.044 0.994-3.493 2.833-4.933 2.733-2.139 7.733-1.435 13.2-5.067s6-8.367 5.3-12c-0.486 3.506-2.146 5.034-4.433 6.4-4.966 2.967-8.066 1.967-12.233 5.034z"></path>
<path fill="#000" style="fill: var(--color1, #000)" opacity="0.78" d="M9.867 16.4c-3.9 2.87-4.667 7.066-4.667 10.566 0.178-1.044 0.994-3.493 2.833-4.933 2.733-2.139 7.733-1.435 13.2-5.067s6-8.367 5.3-12c-0.486 3.506-2.146 5.034-4.433 6.4-4.966 2.967-8.066 1.967-12.233 5.034z"></path>
<path fill="#000" style="fill: var(--color1, #000)" opacity="0.78" d="M5.247 25.532c0.214-3.163 1.241-6.645 4.62-9.132 2.172-1.598 4.055-2.092 6.063-2.619 1.172-0.307 2.386-0.626 3.726-1.181-0.489 0.466-2.812 1.556-4.564 2.285-1.748 0.726-3.591 1.492-5.125 2.515-3.078 2.052-4.33 5.622-4.72 8.132z"></path>
<path fill="#000" style="fill: var(--color1, #000)" opacity="0.78" d="M5.247 25.532c0.214-3.163 1.241-6.645 4.62-9.132 2.172-1.598 4.055-2.092 6.063-2.619 1.172-0.307 2.386-0.626 3.726-1.181-0.489 0.466-2.812 1.556-4.564 2.285-1.748 0.726-3.591 1.492-5.125 2.515-3.078 2.052-4.33 5.622-4.72 8.132z"></path>
<path fill="#000" style="fill: var(--color1, #000)" opacity="0.78" d="M24.218 14.371c-0.377 0.371-0.798 0.7-1.254 0.978l-0.030 0.017c-2.134 1.28-4.401 1.693-6.607 2.095-1.758 0.32-3.477 0.633-5.059 1.372-3.566 1.666-5.766 5.133-6.066 8.133v-0.001c0-0.229 0.003-0.461 0.011-0.695 0.019-0.372 0.056-0.784 0.12-1.223 0.471-2.468 1.752-5.724 4.636-7.646 1.222-0.814 2.638-1.465 4.046-2.063 1.239-0.406 2.355-0.66 3.419-0.901 1.674-0.38 3.218-0.729 4.902-1.602 3.534-1.832 4.46-5.595 4.211-7.809 0.529 2.805 0.315 6.255-2.327 9.346z"></path>
<path fill="#000" style="fill: var(--color1, #000)" opacity="0.78" d="M24.218 14.371c-0.377 0.371-0.798 0.7-1.254 0.978l-0.030 0.017c-2.134 1.28-4.401 1.693-6.607 2.095-1.758 0.32-3.477 0.633-5.059 1.372-2.051 0.959-3.65 2.512-4.696 4.23 0.923-1.296 2.328-2.745 4.063-3.297 1.692-0.538 3.306-0.594 4.983-0.651 0.481-0.017 0.966-0.034 1.461-0.062 1.332-0.485 2.728-1.137 4.156-2.087 1.23-0.817 2.211-1.691 2.984-2.595z"></path>
<path fill="#000" style="fill: var(--color1, #000)" opacity="0.78" d="M24.218 14.371c-0.377 0.371-0.798 0.7-1.254 0.978l-0.030 0.017c-2.134 1.28-4.401 1.693-6.607 2.095-1.758 0.32-3.477 0.633-5.059 1.372-2.051 0.959-3.65 2.512-4.696 4.23 0.923-1.296 2.328-2.745 4.063-3.297 1.692-0.538 3.306-0.594 4.983-0.651 0.481-0.017 0.966-0.034 1.461-0.062 1.332-0.485 2.728-1.137 4.156-2.087 1.23-0.817 2.211-1.691 2.984-2.595z"></path>
<path fill="#000" style="fill: var(--color1, #000)" opacity="0.78" d="M26.544 5.025l-0.011-0.059c-0.486 3.506-2.146 5.034-4.433 6.4-0.684 0.42-1.488 0.833-2.322 1.187l-0.123 0.046c-0.489 0.467-2.812 1.556-4.564 2.285h-0.001c-0.357 0.149-0.717 0.298-1.079 0.451 1.239-0.406 2.355-0.66 3.419-0.901 1.675-0.38 3.218-0.729 4.902-1.602 3.534-1.832 4.46-5.595 4.211-7.809z"></path>
<path fill="#000" style="fill: var(--color1, #000)" opacity="0.78" d="M26.544 5.025l-0.011-0.059c-0.486 3.506-2.146 5.034-4.433 6.4-0.684 0.42-1.488 0.833-2.322 1.187l-0.123 0.046c-0.489 0.467-2.812 1.556-4.564 2.285h-0.001c-0.357 0.149-0.717 0.298-1.079 0.451 1.239-0.406 2.355-0.66 3.419-0.901 1.675-0.38 3.218-0.729 4.902-1.602 3.534-1.832 4.46-5.595 4.211-7.809z"></path>
</symbol>
<symbol id="icon-zeplin" viewBox="0 0 32 32">
<path fill="#fdbd39" style="fill: var(--color5, #fdbd39)" opacity="0.78" d="M6.316 20.169l-1.465 0.526-0.079 4.283 5.070-1.82c-1.739-0.575-3.009-1.585-3.527-2.989z"></path>
<path fill="#f69833" style="fill: var(--color6, #f69833)" opacity="0.78" d="M7.082 15.638l-5.082 1.825 2.851 3.231 1.465-0.526c-0.516-1.4-0.198-2.983 0.766-4.53z"></path>
<path fill="#fecf33" style="fill: var(--color7, #fecf33)" opacity="0.78" d="M15.635 9.457c-6.472 2.324-10.645 7.119-9.32 10.711l23.437-8.416c-1.325-3.591-7.645-4.619-14.117-2.295z"></path>
<path fill="#ee6723" style="fill: var(--color8, #ee6723)" opacity="0.78" d="M20.433 22.463c6.472-2.324 10.652-7.098 9.319-10.711l-23.436 8.416c1.332 3.613 7.645 4.619 14.117 2.295z"></path>
<path fill="#f69833" style="fill: var(--color6, #f69833)" opacity="0.78" d="M29.753 11.752l-23.436 8.416c0.458 1.244 2.209 1.857 4.664 1.857 2.394 0 5.458-0.582 8.653-1.729 6.472-2.324 11.025-6.087 10.119-8.543z"></path>
<path fill="#fdbd39" style="fill: var(--color5, #fdbd39)" opacity="0.78" d="M25.088 9.896c-2.394 0-5.459 0.582-8.654 1.729-6.472 2.324-11.025 6.087-10.118 8.544l23.436-8.416c-0.459-1.244-2.209-1.857-4.665-1.857z"></path>
<path fill="#ee6723" style="fill: var(--color8, #ee6723)" opacity="0.78" d="M23.794 25.204c-0.69 0-1.707-0.613-3.024-1.82-1.558-1.428-3.342-3.521-5.025-5.891-1.682-2.371-3.065-4.741-3.893-6.674-0.902-2.107-1.030-3.402-0.383-3.85 0.137-0.093 0.306-0.148 0.488-0.148 0.008 0 0.015 0 0.023 0l-0.001-0c0.527 0 1.555 0.386 3.455 2.225l0.041 0.040-0.005 0.057c-0.013 0.132-0.025 0.265-0.036 0.396l-0.021 0.26-0.186-0.185c-2.047-2.027-2.949-2.247-3.242-2.247-0.005-0-0.012-0-0.018-0-0.066 0-0.128 0.019-0.181 0.051l0.001-0.001c-0.281 0.194-0.299 1.145 0.575 3.187 0.813 1.899 2.176 4.232 3.837 6.572s3.418 4.401 4.948 5.805c1.65 1.513 2.393 1.676 2.636 1.676 0.005 0 0.011 0 0.017 0 0.069 0 0.133-0.020 0.187-0.054l-0.001 0.001c0.297-0.205 0.297-1.224-0.678-3.422l-0.045-0.101 0.099-0.053c0.098-0.052 0.192-0.105 0.282-0.154l0.117-0.065 0.054 0.122c0.692 1.558 1.338 3.537 0.49 4.122-0.142 0.099-0.315 0.149-0.512 0.149zM23.794 24.965v0z"></path>
<path fill="#ee6723" style="fill: var(--color8, #ee6723)" opacity="0.78" d="M20.59 22.398l-0.010 0.12c-0.163 1.99-0.594 4.382-1.718 4.479-0.021 0.002-0.045 0.003-0.069 0.003-0 0-0 0-0.001 0h0c-0.763 0-1.485-1.075-2.145-3.194-0.625-2.005-1.111-4.698-1.367-7.581s-0.252-5.617 0.011-7.7c0.286-2.269 0.832-3.454 1.62-3.522 0.023-0.002 0.047-0.003 0.071-0.003 0.554 0 1.388 0.616 2.242 3.486l-0.558 0.105c-0.285-0.959-0.596-1.739-0.904-2.275-0.285-0.495-0.563-0.768-0.782-0.768-0.007 0-0.015 0-0.021 0.001-0.341 0.029-0.84 0.845-1.117 3.044-0.258 2.045-0.261 4.739-0.009 7.585s0.73 5.498 1.343 7.468c0.275 0.882 0.577 1.608 0.872 2.102 0.273 0.455 0.536 0.705 0.742 0.705l0.021-0c0.327-0.029 0.943-0.877 1.203-3.86l0.573-0.194z"></path>
</symbol>
<symbol id="icon-folder-plus" viewBox="0 0 32 32">
<path d="M18 8l-4-4h-14v26h32v-22h-14zM22 22h-4v4h-4v-4h-4v-4h4v-4h4v4h4v4z"></path>
</symbol>
<symbol id="icon-like" viewBox="0 0 32 32">
<path d="M23.6 2c-3.363 0-6.258 2.736-7.599 5.594-1.342-2.858-4.237-5.594-7.601-5.594-4.637 0-8.4 3.764-8.4 8.401 0 9.433 9.516 11.906 16.001 21.232 6.13-9.268 15.999-12.1 15.999-21.232 0-4.637-3.763-8.401-8.4-8.401z"></path>
</symbol>
</defs>
</svg>
