<svg aria-hidden="true" style="position: absolute; width: 0; height: 0; overflow: hidden;" version="1.1" xmlns="http://www.w3.org/2000/svg" xmlns:xlink="http://www.w3.org/1999/xlink">
<defs>
<symbol id="icon-figma" viewBox="0 0 32 32">
<path fill="#19bcfe" style="fill: var(--color1, #19bcfe)" opacity="0.78" d="M21.334 21.334c2.945 0 5.333-2.388 5.333-5.334s-2.387-5.334-5.333-5.334-5.334 2.389-5.334 5.334 2.388 5.334 5.334 5.334z"></path>
<path fill="#09cf83" style="fill: var(--color2, #09cf83)" opacity="0.78" d="M10.666 32c2.946 0 5.334-2.388 5.334-5.334v0-5.333h-5.334c-0.015-0-0.033-0-0.052-0-2.946 0-5.333 2.388-5.333 5.334s2.388 5.334 5.333 5.334c0.018 0 0.036-0 0.054-0l-0.003 0z"></path>
<path fill="#a259ff" style="fill: var(--color3, #a259ff)" opacity="0.78" d="M10.666 21.334h5.334v-10.667h-5.334c-2.946 0-5.333 2.388-5.333 5.333s2.388 5.334 5.333 5.334v0z"></path>
<path fill="#f24e1e" style="fill: var(--color4, #f24e1e)" opacity="0.78" d="M10.666 10.666h5.334v-10.666h-5.334c-0.015-0-0.033-0-0.052-0-2.946 0-5.333 2.388-5.333 5.333s2.388 5.334 5.333 5.334c0.018 0 0.036-0 0.054-0l-0.003 0z"></path>
<path fill="#ff7262" style="fill: var(--color5, #ff7262)" opacity="0.78" d="M21.334 10.666h-5.334v-10.666h5.334c2.923 0.029 5.282 2.406 5.282 5.333s-2.359 5.304-5.279 5.333l-0.003 0z"></path>
</symbol>
<symbol id="icon-slack" viewBox="0 0 33 32">
<path fill="#e01e5a" style="fill: var(--color6, #e01e5a)" opacity="0.78" d="M6.836 20.11c0 0.439-0.088 0.873-0.258 1.279-0.181 0.423-0.431 0.783-0.738 1.084l-0.001 0.001c-0.309 0.303-0.676 0.548-1.082 0.716l-0.023 0.008c-0.384 0.16-0.831 0.253-1.299 0.253-0.002 0-0.003 0-0.005 0h0c-0.447 0-0.89-0.087-1.303-0.255-0.429-0.177-0.796-0.422-1.106-0.725l0.001 0.001c-0.307-0.302-0.556-0.662-0.729-1.063l-0.008-0.022c-0.163-0.377-0.259-0.816-0.259-1.278 0-0 0-0.001 0-0.001v0c0-0.439 0.087-0.874 0.259-1.28 0.181-0.422 0.43-0.783 0.737-1.084l0.001-0.001c0.309-0.303 0.676-0.548 1.082-0.716l0.023-0.008c0.384-0.16 0.831-0.253 1.299-0.253 0.001 0 0.003 0 0.004 0h3.405v3.343h-0.001zM8.538 20.11c0-0.439 0.088-0.875 0.258-1.28 0.181-0.423 0.43-0.783 0.737-1.084l0.001-0c0.309-0.303 0.676-0.548 1.082-0.716l0.023-0.008c0.384-0.16 0.831-0.253 1.299-0.253 0.001 0 0.003 0 0.004 0h-0c0.447-0 0.89 0.085 1.303 0.253 0.429 0.177 0.796 0.422 1.106 0.726l-0.001-0c0.308 0.302 0.557 0.662 0.73 1.063l0.008 0.022c0.171 0.405 0.258 0.84 0.258 1.28v8.357c0 0.439-0.088 0.874-0.258 1.28-0.181 0.423-0.43 0.783-0.737 1.084l-0.001 0.001c-0.309 0.303-0.676 0.548-1.082 0.716l-0.023 0.008c-0.384 0.16-0.831 0.253-1.299 0.253-0.001 0-0.003 0-0.004 0h0c-0.447 0-0.89-0.086-1.303-0.254-0.429-0.177-0.796-0.422-1.106-0.725l0.001 0.001c-0.308-0.302-0.557-0.662-0.729-1.063l-0.008-0.022c-0.163-0.377-0.258-0.816-0.258-1.278 0-0.001 0-0.001 0-0.002v0-8.357z"></path>
<path fill="#36c5f0" style="fill: var(--color7, #36c5f0)" opacity="0.78" d="M11.943 6.687c-0.447 0-0.89-0.086-1.303-0.254-0.429-0.177-0.796-0.422-1.106-0.726l0.001 0c-0.308-0.302-0.557-0.662-0.73-1.063l-0.008-0.022c-0.163-0.377-0.258-0.816-0.258-1.277 0-0.001 0-0.002 0-0.003v0c0-0.44 0.088-0.874 0.258-1.28 0.181-0.423 0.43-0.783 0.737-1.085l0.001-0c0.309-0.303 0.676-0.548 1.082-0.716l0.023-0.008c0.384-0.16 0.831-0.254 1.299-0.254 0.001 0 0.002 0 0.003 0h-0c0.447 0 0.89 0.086 1.303 0.254 0.429 0.177 0.796 0.422 1.106 0.726l-0.001-0c0.308 0.302 0.557 0.662 0.73 1.063l0.008 0.022c0.171 0.405 0.258 0.84 0.258 1.279v3.345l-3.405-0.001zM11.943 8.383c0.447 0 0.89 0.086 1.303 0.254 0.429 0.177 0.796 0.422 1.106 0.726l-0.001-0.001c0.308 0.302 0.557 0.662 0.73 1.063l0.008 0.022c0.171 0.405 0.258 0.84 0.258 1.279s-0.088 0.874-0.258 1.28c-0.181 0.423-0.43 0.783-0.737 1.085l-0.001 0.001c-0.309 0.303-0.676 0.547-1.082 0.716l-0.023 0.008c-0.385 0.161-0.832 0.254-1.3 0.254-0.001 0-0.002 0-0.003 0h-8.538c-0.447 0-0.89-0.086-1.303-0.254-0.429-0.177-0.796-0.422-1.106-0.725l0.001 0.001c-0.307-0.302-0.556-0.662-0.729-1.063l-0.008-0.022c-0.164-0.378-0.259-0.818-0.259-1.28s0.095-0.901 0.267-1.3l-0.008 0.021c0.181-0.423 0.43-0.783 0.737-1.084l0.001-0.001c0.309-0.303 0.676-0.548 1.082-0.716l0.023-0.008c0.385-0.161 0.832-0.254 1.301-0.254 0.001 0 0.002 0 0.003 0l8.538-0.001z"></path>
<path fill="#2eb67d" style="fill: var(--color8, #2eb67d)" opacity="0.78" d="M25.587 11.726c0-0.439 0.087-0.874 0.259-1.28 0.181-0.423 0.43-0.783 0.737-1.084l0.001-0.001c0.309-0.303 0.676-0.548 1.083-0.716l0.023-0.008c0.384-0.16 0.831-0.254 1.299-0.254 0.002 0 0.003 0 0.005 0h-0c0.448 0 0.89 0.086 1.303 0.254 0.429 0.177 0.796 0.422 1.106 0.726l-0.001-0.001c0.308 0.302 0.557 0.662 0.729 1.063l0.008 0.022c0.171 0.405 0.259 0.84 0.258 1.279s-0.087 0.874-0.258 1.28c-0.181 0.423-0.43 0.783-0.737 1.085l-0.001 0.001c-0.309 0.303-0.676 0.547-1.082 0.716l-0.023 0.008c-0.385 0.161-0.832 0.254-1.3 0.254-0.001 0-0.002 0-0.003 0h-3.405v-3.343zM23.884 11.726c0 0.439-0.087 0.874-0.258 1.28-0.181 0.423-0.43 0.783-0.737 1.085l-0.001 0.001c-0.309 0.303-0.676 0.547-1.082 0.716l-0.023 0.008c-0.385 0.161-0.832 0.254-1.3 0.254-0.001 0-0.002 0-0.003 0h0c-0.001 0-0.003 0-0.005 0-0.468 0-0.915-0.093-1.322-0.262l0.023 0.008c-0.429-0.177-0.796-0.422-1.106-0.725l0.001 0.001c-0.308-0.302-0.557-0.662-0.73-1.063l-0.008-0.022c-0.163-0.377-0.259-0.816-0.259-1.278 0-0.001 0-0.002 0-0.002v0-8.383c0-0.439 0.087-0.874 0.259-1.28 0.181-0.423 0.431-0.783 0.738-1.084l0.001-0.001c0.309-0.303 0.676-0.547 1.082-0.716l0.023-0.008c0.384-0.16 0.831-0.254 1.299-0.254 0.002 0 0.003 0 0.005 0h-0c0.447 0 0.89 0.086 1.303 0.254 0.429 0.177 0.796 0.422 1.106 0.726l-0.001-0c0.308 0.302 0.557 0.662 0.73 1.063l0.008 0.022c0.171 0.405 0.259 0.84 0.258 1.279v8.383z"></path>
<path fill="#ecb22e" style="fill: var(--color9, #ecb22e)" opacity="0.78" d="M20.48 25.123c0.448 0 0.89 0.086 1.303 0.254 0.429 0.177 0.796 0.422 1.106 0.725l-0.001-0.001c0.308 0.302 0.557 0.662 0.729 1.063l0.008 0.022c0.171 0.405 0.259 0.84 0.259 1.279 0 0.001 0 0.002 0 0.003 0 0.461-0.095 0.9-0.266 1.298l0.008-0.021c-0.181 0.423-0.43 0.783-0.737 1.084l-0 0c-0.309 0.303-0.676 0.548-1.082 0.717l-0.023 0.008c-0.385 0.161-0.832 0.254-1.301 0.254-0.001 0-0.002 0-0.003 0h0c-0.448 0-0.89-0.086-1.304-0.254-0.429-0.177-0.796-0.422-1.106-0.726l0.001 0c-0.308-0.302-0.557-0.662-0.729-1.063l-0.008-0.022c-0.163-0.377-0.258-0.816-0.258-1.277 0-0.001 0-0.002 0-0.003v0-3.343h3.404zM20.48 23.453c-0.447 0-0.89-0.086-1.303-0.254-0.429-0.177-0.796-0.422-1.106-0.725l0.001 0.001c-0.308-0.302-0.557-0.662-0.729-1.063l-0.008-0.022c-0.163-0.377-0.259-0.816-0.259-1.278 0-0.001 0-0.001 0-0.002v0c0-0.439 0.087-0.874 0.259-1.28 0.181-0.422 0.43-0.783 0.737-1.084l0.001-0.001c0.309-0.303 0.676-0.548 1.082-0.716l0.023-0.008c0.384-0.16 0.831-0.253 1.299-0.253 0.001 0 0.003 0 0.004 0h8.538c0.447-0 0.89 0.085 1.303 0.253 0.429 0.177 0.796 0.422 1.106 0.726l-0.001-0c0.308 0.302 0.557 0.662 0.73 1.063l0.008 0.022c0.171 0.405 0.258 0.84 0.258 1.28 0.001 0.439-0.087 0.873-0.258 1.279-0.181 0.423-0.43 0.783-0.737 1.084l-0.001 0c-0.309 0.303-0.676 0.548-1.082 0.717l-0.023 0.008c-0.384 0.16-0.831 0.253-1.299 0.253-0.001 0-0.003 0-0.004 0h-8.538z"></path>
</symbol>
<symbol id="icon-invision" viewBox="0 0 33 32">
<path fill="#f06" style="fill: var(--color10, #f06)" opacity="0.78" d="M0 2c0-1.105 0.895-2 2-2v0h28.5c1.105 0 2 0.895 2 2v0 27.912c0 1.105-0.895 2-2 2v0h-28.5c-1.105 0-2-0.895-2-2v0-27.912z"></path>
<path fill="#fff" style="fill: var(--color11, #fff)" opacity="0.78" d="M11.059 10.269c1.028-0.015 1.851-0.842 1.841-1.851s-0.848-1.822-1.877-1.816c-1.028 0.005-1.859 0.825-1.859 1.834 0.001 0.243 0.050 0.483 0.146 0.707s0.236 0.427 0.412 0.598c0.177 0.171 0.385 0.305 0.615 0.396 0.229 0.091 0.475 0.136 0.722 0.133zM7.129 20.089c-0.103 0.412-0.163 0.887-0.167 1.375l-0 0.003c0 1.615 0.891 2.686 2.787 2.686 1.572 0 2.847-0.916 3.764-2.397l-0.56 2.209h3.12l1.785-7.020c0.445-1.78 1.308-2.703 2.619-2.703 1.031 0 1.672 0.63 1.672 1.67 0 0.014 0 0.031 0 0.049 0 0.334-0.051 0.656-0.145 0.959l0.006-0.023-0.919 3.229c-0.124 0.403-0.195 0.866-0.195 1.346 0 0.008 0 0.015 0 0.023v-0.001c0 1.532 0.919 2.655 2.842 2.655 1.645 0 2.955-1.039 3.679-3.529l-1.226-0.466c-0.613 1.669-1.143 1.971-1.56 1.971s-0.642-0.273-0.642-0.82c0.013-0.307 0.063-0.598 0.145-0.874l-0.006 0.025 0.893-3.146c0.201-0.646 0.304-1.319 0.307-1.995 0-2.354-1.45-3.582-3.206-3.582-1.645 0-3.316 1.456-4.152 2.989l0.612-2.752h-4.764l-0.669 2.425h2.231l-1.373 5.393c-1.079 2.354-3.060 2.392-3.309 2.337-0.408-0.090-0.668-0.242-0.668-0.766 0.012-0.424 0.078-0.845 0.195-1.252l2.090-8.143h-5.293l-0.668 2.425h2.201l-1.423 5.702z"></path>
</symbol>
<symbol id="icon-sketch" viewBox="0 0 36 32">
<path fill="#fdb300" style="fill: var(--color12, #fdb300)" d="M17.965 0l-10.125 1.051-7.839 10.333 17.965 20.541 17.965-20.542-7.839-10.332-10.125-1.052z"></path>
<path fill="#eb6c00" style="fill: var(--color13, #eb6c00)" d="M0 11.384l17.965 20.542-10.688-20.542h-7.277zM28.653 11.384l-10.688 20.542 17.965-20.542h-7.277z"></path>
<path fill="#fdad00" style="fill: var(--color14, #fdad00)" d="M7.277 11.384l10.688 20.542 10.689-20.542h-21.377z"></path>
<path fill="#fdd231" style="fill: var(--color15, #fdd231)" d="M7.839 1.051l-0.564 10.333 10.689-11.384-10.125 1.051zM28.653 11.384l-0.563-10.333-10.125-1.051 10.688 11.384z"></path>
<path fill="#fdad00" style="fill: var(--color14, #fdad00)" d="M28.653 11.384h7.277l-7.839-10.333 0.563 10.333zM0 11.384h7.276l0.563-10.333-7.839 10.333z"></path>
<path fill="#feeeb7" style="fill: var(--color16, #feeeb7)" d="M17.965 0l-10.688 11.384h21.377l-10.689-11.384z"></path>
</symbol>
<symbol id="icon-vs-code" viewBox="0 0 33 32">
<path fill="#0065a9" style="fill: var(--color17, #0065a9)" opacity="0.78" d="M31.744 3.378l-6.776-3.18c-0.26-0.125-0.566-0.198-0.888-0.198-0.121 0-0.24 0.010-0.356 0.030l0.012-0.002c-0.434 0.073-0.812 0.271-1.106 0.557l0-0-22.183 19.708c-0.275 0.242-0.447 0.594-0.447 0.987s0.173 0.746 0.447 0.987l0.002 0.001 1.812 1.605c0.229 0.203 0.529 0.332 0.858 0.346l0.003 0c0.32 0.014 0.634-0.081 0.889-0.27l26.714-19.747c0.896-0.662 2.184-0.040 2.184 1.056v-0.077c0-0.377-0.11-0.747-0.315-1.066-0.209-0.32-0.497-0.572-0.837-0.734l-0.012-0.005z"></path>
<path fill="#007acc" style="fill: var(--color18, #007acc)" opacity="0.78" d="M31.744 28.503l-6.776 3.179c-0.26 0.125-0.566 0.198-0.889 0.198-0.121 0-0.24-0.010-0.356-0.030l0.012 0.002c-0.434-0.073-0.812-0.271-1.106-0.557l0 0-22.183-19.708c-0.275-0.242-0.447-0.594-0.447-0.987s0.173-0.746 0.447-0.987l0.002-0.001 1.812-1.605c0.229-0.203 0.529-0.332 0.858-0.346l0.003-0c0.32-0.014 0.634 0.081 0.889 0.27l26.713 19.747c0.896 0.662 2.184 0.040 2.184-1.056v0.077c-0 0.396-0.118 0.765-0.32 1.073l0.005-0.008c-0.209 0.32-0.497 0.572-0.837 0.734l-0.012 0.005z"></path>
<path fill="#1f9cf0" style="fill: var(--color19, #1f9cf0)" opacity="0.78" d="M24.946 31.685c-0.26 0.125-0.566 0.198-0.889 0.198-0.121 0-0.24-0.010-0.356-0.030l0.012 0.002c-0.434-0.073-0.812-0.272-1.106-0.557l0 0c0.758 0.739 2.055 0.215 2.055-0.83v-29.050c0-1.045-1.297-1.569-2.055-0.829 0.293-0.285 0.671-0.484 1.093-0.555l0.012-0.002c0.103-0.018 0.222-0.028 0.344-0.028 0.323 0 0.628 0.073 0.901 0.203l-0.013-0.005 6.775 3.175c0.352 0.167 0.64 0.419 0.845 0.731l0.005 0.008c0.197 0.301 0.315 0.67 0.315 1.066v21.526c0 0.77-0.452 1.471-1.164 1.805l-6.775 3.175z"></path>
<path fill="#000" style="fill: var(--color20, #000)" opacity="0.195" d="M23.321 31.744c0.221 0.086 0.476 0.136 0.744 0.136 0.322 0 0.628-0.073 0.901-0.203l-0.013 0.005 6.771-3.175c0.352-0.167 0.64-0.419 0.844-0.731l0.005-0.008c0.206-0.32 0.315-0.689 0.315-1.066v-21.526c0-0.377-0.109-0.747-0.315-1.066-0.209-0.32-0.497-0.572-0.836-0.734l-0.012-0.005-6.771-3.175c-0.26-0.125-0.566-0.198-0.888-0.198-0.122 0-0.241 0.010-0.356 0.030l0.012-0.002c-0.434 0.073-0.812 0.272-1.105 0.557l0-0-12.963 11.523-5.646-4.176c-0.228-0.17-0.516-0.272-0.827-0.272-0.022 0-0.044 0-0.065 0.002l0.003-0c-0.332 0.014-0.631 0.143-0.861 0.347l0.001-0.001-1.811 1.605c-0.275 0.242-0.448 0.595-0.448 0.988s0.172 0.745 0.445 0.986l0.001 0.001 4.896 4.353-4.896 4.352c-0.275 0.242-0.447 0.594-0.447 0.987s0.173 0.746 0.447 0.987l0.001 0.001 1.811 1.605c0.229 0.203 0.529 0.331 0.858 0.345l0.003 0c0.019 0.001 0.040 0.001 0.062 0.001 0.311 0 0.598-0.102 0.83-0.274l-0.004 0.003 5.646-4.176 12.962 11.523c0.2 0.196 0.44 0.348 0.704 0.448zM24.67 8.665l-9.835 7.275 9.835 7.274v-14.549z"></path>
</symbol>
<symbol id="icon-notion" viewBox="0 0 32 32">
<path fill="#fff" style="fill: var(--color11, #fff)" opacity="0.78" d="M5.716 29.218l-3.439-4.285c-0.793-0.976-1.274-2.233-1.276-3.602v-15.516c0-1.954 1.563-3.576 3.581-3.714l15.951-1.089c0.108-0.008 0.234-0.013 0.361-0.013 1.083 0 2.088 0.331 2.92 0.897l-0.018-0.012 5.604 3.789c1.003 0.678 1.601 1.787 1.601 2.97v17.639c0 1.913-1.538 3.497-3.512 3.618l-17.704 1.090c-1.576 0.096-3.099-0.567-4.067-1.773z"></path>
<path fill="#000" style="fill: var(--color20, #000)" opacity="0.78" d="M11.248 13.579v-0.203c0-0.515 0.412-0.942 0.944-0.978l3.872-0.258 5.354 7.884v-6.919l-1.378-0.184v-0.097c0-0.521 0.422-0.951 0.96-0.979l3.523-0.18v0.506c-0.003 0.244-0.183 0.445-0.417 0.482l-0.003 0-0.848 0.143v11.205l-1.064 0.366c-0.889 0.305-1.878-0.021-2.387-0.789l-5.197-7.843v7.486l1.6 0.306-0.023 0.148c-0.070 0.465-0.471 0.817-0.957 0.838l-3.979 0.177c-0.053-0.5 0.322-0.947 0.839-1.001l0.524-0.055v-9.982l-1.363-0.076z"></path>
<path fill="#000" style="fill: var(--color20, #000)" opacity="0.78" d="M20.675 2.967l-15.951 1.089c-0.955 0.065-1.696 0.833-1.696 1.759v15.515c0 0.87 0.3 1.715 0.851 2.402l3.439 4.285c0.556 0.692 1.431 1.074 2.337 1.018l17.704-1.090c0.907-0.055 1.614-0.783 1.614-1.662v-17.639c-0.003-0.567-0.292-1.066-0.73-1.361l-0.006-0.004-5.604-3.789c-0.489-0.333-1.092-0.531-1.741-0.531-0.076 0-0.152 0.003-0.227 0.008l0.010-0.001zM5.515 6.057c-0.223-0.165-0.117-0.506 0.162-0.527l15.105-1.083c0.045-0.004 0.098-0.006 0.152-0.006 0.449 0 0.864 0.142 1.204 0.384l-0.006-0.004 3.031 2.147c0.115 0.082 0.061 0.258-0.081 0.265l-15.996 0.87c-0.035 0.002-0.076 0.003-0.117 0.003-0.463 0-0.891-0.152-1.236-0.408l0.006 0.004-2.223-1.646zM8.334 10.831c0-0.52 0.42-0.949 0.957-0.978l16.913-0.921c0.523-0.028 0.964 0.374 0.964 0.88v15.273c0 0.519-0.419 0.948-0.954 0.979l-16.805 0.956c-0.582 0.033-1.073-0.415-1.073-0.978v-15.211z"></path>
</symbol>
<symbol id="icon-folder-plus" viewBox="0 0 32 32">
<path d="M18 8l-4-4h-14v26h32v-22h-14zM22 22h-4v4h-4v-4h-4v-4h4v-4h4v4h4v4z"></path>
</symbol>
<symbol id="icon-like" viewBox="0 0 32 32">
<path d="M23.6 2c-3.363 0-6.258 2.736-7.599 5.594-1.342-2.858-4.237-5.594-7.601-5.594-4.637 0-8.4 3.764-8.4 8.401 0 9.433 9.516 11.906 16.001 21.232 6.13-9.268 15.999-12.1 15.999-21.232 0-4.637-3.763-8.401-8.4-8.401z"></path>
</symbol>
</defs>
</svg>
